<svg height="208mm" viewBox="0 0 208 208" width="208mm" xmlns="http://www.w3.org/2000/svg"><ellipse cx="179.04372" cy="168.65413" fill="#8777d9" rx="25.923513" ry="26.450279" stroke-width=".256295"/><path d="m88.832821 14.323674c-46.944188.000011-84.9999684 38.055791-84.99998 84.999979.0000127 46.944187 38.055793 84.999967 84.99998 84.999977 16.748849-.0306 33.115379-5.00867 47.044669-14.3092l-29.02871-33.53697c-4.44916 1.76101-9.190898 2.66587-13.975896 2.66702-20.986828-.00014-37.999897-17.01344-37.999748-38.00027.000141-20.986622 17.013126-37.999605 37.999748-37.999744 20.986826-.000147 38.000126 17.01292 38.000266 37.999744-.009 1.43782-.0992 2.87398-.27079 4.30155l38.13773 22.24722c3.30018-9.09757 5.02251-18.69192 5.09271-28.369327-.00001-46.944187-38.05579-84.999967-84.999979-84.999979zm47.044669 155.690756.63976.73897z" fill="#6554c0" stroke-width=".254658"/></svg>